<?xml version="1.0" encoding="UTF-8"?> <!-- Generator: Adobe Illustrator 26.0.1, SVG Export Plug-In . SVG Version: 6.00 Build 0) --> <svg xmlns="http://www.w3.org/2000/svg" xmlns:xlink="http://www.w3.org/1999/xlink" id="Слой_1" x="0px" y="0px" viewBox="0 0 1000 868.33" style="enable-background:new 0 0 1000 868.33;" xml:space="preserve"> <style type="text/css"> .st0{fill:url(#SVGID_1_);} .st1{fill:url(#SVGID_00000054248286939527047550000004825228778981922979_);} .st2{fill:url(#SVGID_00000113325444227582711650000007887286931283982014_);} .st3{fill:url(#SVGID_00000016798062261543079860000006013863106568518300_);} .st4{fill:url(#SVGID_00000131360604867031017520000000447622044564654469_);} .st5{fill:url(#SVGID_00000127013941086946601080000013937061495060958384_);} .st6{fill:url(#SVGID_00000100352718746613987450000017130540151559092385_);} .st7{fill:url(#SVGID_00000124125367535600381330000000093609232496084153_);} .st8{fill:url(#SVGID_00000126296002039758957970000011668819627291302528_);} .st9{fill:url(#SVGID_00000028303808102704312720000011605642336475937926_);} .st10{fill:url(#SVGID_00000029743322290351333100000016266206636022583474_);} .st11{fill:url(#SVGID_00000119098101359539058670000014415102327278648737_);} .st12{fill:url(#SVGID_00000173879359727498015790000005141278992618733219_);} .st13{fill:url(#SVGID_00000118382559008284142960000008400384236202693771_);} .st14{fill:url(#SVGID_00000075848739181116957150000002404006644838844816_);} .st15{fill:url(#SVGID_00000030477352820154683340000013568166850392020131_);} .st16{fill:url(#SVGID_00000132079970019833421590000017678374202259602617_);} .st17{fill:url(#SVGID_00000049216999718166913030000007321965378203338133_);} .st18{fill:url(#SVGID_00000019656260280328906020000003937168527887047060_);} .st19{fill:url(#SVGID_00000117649572174085046640000016427908679635447957_);} .st20{fill:url(#SVGID_00000137810532701733663420000007814907296711961023_);} .st21{fill:url(#SVGID_00000003078089685633476700000007515763752874017715_);} .st22{fill:url(#SVGID_00000137122032712555073990000011434461152266949258_);} .st23{fill:url(#SVGID_00000159433585334554643600000000564764507844446380_);} .st24{fill:url(#SVGID_00000114047580250494332660000001571146079869075899_);} .st25{fill:url(#SVGID_00000096047021045155829430000013159739217427408798_);} .st26{fill:url(#SVGID_00000181065985725191241070000000767371406951481528_);} </style> <g> <linearGradient id="SVGID_1_" gradientUnits="userSpaceOnUse" x1="1001.2027" y1="-28.562" x2="-861.184" y2="1146.5154"> <stop offset="0" style="stop-color:#ECB32D"></stop> <stop offset="0.1137" style="stop-color:#F4D756"></stop> <stop offset="0.2097" style="stop-color:#FBF279"></stop> <stop offset="0.4462" style="stop-color:#914811"></stop> <stop offset="0.6667" style="stop-color:#F19530"></stop> <stop offset="1" style="stop-color:#ECB32D"></stop> </linearGradient> <path class="st0" d="M577.71,249.86l37.98-26.07l-39.07-2.7c-4.22-5.3-10.89-8.65-18.38-8.1c-0.1,0.01-0.21,0.01-0.31,0.02 c-6.08,0.44-11.96,2.38-17.13,5.64c-1.32,0.83-2.85,1.8-4.48,2.83c-4.27-5.46-8.84-10.71-13.8-15.69 c-16.28-16.33-35.27-28.97-56.43-37.57c-20.44-8.31-42.03-12.52-64.19-12.52s-43.75,4.21-64.19,12.52 c-21.16,8.6-40.15,21.25-56.43,37.57c-16.28,16.33-28.89,35.36-37.47,56.58c-8.29,20.49-12.49,42.15-12.49,64.36 c0,22.21,4.2,43.87,12.49,64.36c1.59,3.93,3.36,7.76,5.23,11.53c-53.25,33.58-92.13,58.09-92.13,58.09c-1.84,1.16-0.43,4,1.6,3.22 c20.74-7.99,58.47-22.66,102.76-40.41c5.89,8.58,12.54,16.66,20.01,24.15c16.28,16.33,35.27,28.97,56.43,37.57 c18.18,7.39,37.28,11.52,56.87,12.35l-54.94,116.22c0,0,41.29-55.43,85.03-117.59c14.19-1.9,28.05-5.55,41.42-10.98 c21.16-8.6,40.15-21.25,56.43-37.57c16.28-16.33,28.89-35.36,37.47-56.58c8.29-20.49,12.49-42.15,12.49-64.36 c0-17.58-2.68-34.81-7.88-51.39C570.63,266.67,574.87,258.06,577.71,249.86z M285,209.51c32.23-32.32,74.57-48.48,116.9-48.48 c42.34,0,84.67,16.16,116.9,48.48c4.7,4.72,9.02,9.67,13.04,14.79c-47.01,29.64-183.65,115.81-278.31,175.5 C223.29,337.9,233.75,260.91,285,209.51z M285,443.96c-7.01-7.03-13.21-14.56-18.7-22.44c66.3-26.62,146.13-59.72,205.73-87.73 l-74.95,158.53C356.37,491.14,316.01,475.05,285,443.96z M518.81,443.96c-25.35,25.42-56.95,40.79-89.88,46.22 c46.47-66.26,94.3-138.31,97.32-158.26c1.43-9.47,1.15-17.91-0.06-25.41c15.14-8.46,25.91-15.67,30.59-21.04 c1.39-1.59,2.65-3.19,3.9-4.79C576.76,336.8,562.83,399.83,518.81,443.96z"></path> <g> <g> <g> <linearGradient id="SVGID_00000155111581259045658610000011742519509541027749_" gradientUnits="userSpaceOnUse" x1="188.3024" y1="590.5161" x2="873.2771" y2="576.537"> <stop offset="0" style="stop-color:#ECB32D"></stop> <stop offset="0.1137" style="stop-color:#F4D756"></stop> <stop offset="0.2097" style="stop-color:#FBF279"></stop> <stop offset="0.4462" style="stop-color:#914811"></stop> <stop offset="0.6667" style="stop-color:#F19530"></stop> <stop offset="1" style="stop-color:#ECB32D"></stop> </linearGradient> <path style="fill:url(#SVGID_00000155111581259045658610000011742519509541027749_);" d="M420.42,623.17v-1.09 c11.91,0-3.05-40.29,20.34-47.67c-5.31-5-13.74-14.77-13.74-27.25h6.5c-0.9,10.75,1.51,20.74,10.07,27.8 C425.4,578.32,444.25,623.17,420.42,623.17z M450.74,623.17h-6.49v-76.01h6.49V623.17z M461.47,547.15h6.5 c0,12.49-8.43,22.26-13.74,27.25c23.39,7.38,8.43,47.67,20.34,47.67v1.09c-23.83,0-4.98-44.85-23.17-48.21 C459.95,567.89,462.3,557.81,461.47,547.15z"></path> <linearGradient id="SVGID_00000180335218237900449160000012012702016395757189_" gradientUnits="userSpaceOnUse" x1="188.3286" y1="591.7961" x2="873.3032" y2="577.817"> <stop offset="0" style="stop-color:#ECB32D"></stop> <stop offset="0.1137" style="stop-color:#F4D756"></stop> <stop offset="0.2097" style="stop-color:#FBF279"></stop> <stop offset="0.4462" style="stop-color:#914811"></stop> <stop offset="0.6667" style="stop-color:#F19530"></stop> <stop offset="1" style="stop-color:#ECB32D"></stop> </linearGradient> <path style="fill:url(#SVGID_00000180335218237900449160000012012702016395757189_);" d="M510.3,620.75h12.99v2.42H503.8v-76.01 h19.49v2.42H510.3v24.06h6.49v2.41h-6.49V620.75z"></path> <linearGradient id="SVGID_00000023971131111631795200000005237067881541548974_" gradientUnits="userSpaceOnUse" x1="188.3495" y1="592.8253" x2="873.3242" y2="578.8463"> <stop offset="0" style="stop-color:#ECB32D"></stop> <stop offset="0.1137" style="stop-color:#F4D756"></stop> <stop offset="0.2097" style="stop-color:#FBF279"></stop> <stop offset="0.4462" style="stop-color:#914811"></stop> <stop offset="0.6667" style="stop-color:#F19530"></stop> <stop offset="1" style="stop-color:#ECB32D"></stop> </linearGradient> <path style="fill:url(#SVGID_00000023971131111631795200000005237067881541548974_);" d="M571.04,573.63v-26.48h6.49v76.01 h-6.49v-47.12h-14.08v47.12h-6.5v-76.01h6.5v26.48H571.04z"></path> <linearGradient id="SVGID_00000030446257968000229280000017595500449143351731_" gradientUnits="userSpaceOnUse" x1="188.5184" y1="601.0964" x2="873.493" y2="587.1172"> <stop offset="0" style="stop-color:#ECB32D"></stop> <stop offset="0.1137" style="stop-color:#F4D756"></stop> <stop offset="0.2097" style="stop-color:#FBF279"></stop> <stop offset="0.4462" style="stop-color:#914811"></stop> <stop offset="0.6667" style="stop-color:#F19530"></stop> <stop offset="1" style="stop-color:#ECB32D"></stop> </linearGradient> <path style="fill:url(#SVGID_00000030446257968000229280000017595500449143351731_);" d="M653.55,623.17h-43.53v-76.68h6.5 v74.93h10.83v-74.93h6.5v74.93h10.83v-74.93h6.5v74.93h4.55l0.06,12.7l-6.57,3.59L653.55,623.17z"></path> <linearGradient id="SVGID_00000111179924807498706320000012708072860784172678_" gradientUnits="userSpaceOnUse" x1="188.4048" y1="595.5334" x2="873.3795" y2="581.5544"> <stop offset="0" style="stop-color:#ECB32D"></stop> <stop offset="0.1137" style="stop-color:#F4D756"></stop> <stop offset="0.2097" style="stop-color:#FBF279"></stop> <stop offset="0.4462" style="stop-color:#914811"></stop> <stop offset="0.6667" style="stop-color:#F19530"></stop> <stop offset="1" style="stop-color:#ECB32D"></stop> </linearGradient> <path style="fill:url(#SVGID_00000111179924807498706320000012708072860784172678_);" d="M691.45,597.85h0.22l15.67-50.7 l1.22,0.01v76.01h-6.49V572.9h-0.22l-15.64,50.26l-1.26,0.01v-76.01h6.5V597.85z"></path> <linearGradient id="SVGID_00000066479850399874290920000013340316175061669786_" gradientUnits="userSpaceOnUse" x1="188.4289" y1="596.713" x2="873.4036" y2="582.7339"> <stop offset="0" style="stop-color:#ECB32D"></stop> <stop offset="0.1137" style="stop-color:#F4D756"></stop> <stop offset="0.2097" style="stop-color:#FBF279"></stop> <stop offset="0.4462" style="stop-color:#914811"></stop> <stop offset="0.6667" style="stop-color:#F19530"></stop> <stop offset="1" style="stop-color:#ECB32D"></stop> </linearGradient> <path style="fill:url(#SVGID_00000066479850399874290920000013340316175061669786_);" d="M761.61,573.63v-26.48h6.49v76.01 h-6.49v-47.12h-14.08v47.12h-6.5v-76.01h6.5v26.48H761.61z"></path> <linearGradient id="SVGID_00000133494782977916012960000015849405697897160336_" gradientUnits="userSpaceOnUse" x1="188.4575" y1="598.1155" x2="873.4322" y2="584.1364"> <stop offset="0" style="stop-color:#ECB32D"></stop> <stop offset="0.1137" style="stop-color:#F4D756"></stop> <stop offset="0.2097" style="stop-color:#FBF279"></stop> <stop offset="0.4462" style="stop-color:#914811"></stop> <stop offset="0.6667" style="stop-color:#F19530"></stop> <stop offset="1" style="stop-color:#ECB32D"></stop> </linearGradient> <path style="fill:url(#SVGID_00000133494782977916012960000015849405697897160336_);" d="M800.58,623.17v-76.01h6.5v27.14 c8.99,0,28.97,0.55,28.78,22.76c-0.2,23.13-19.79,26.1-28.78,26.1H800.58z M807.08,621.41c7.36,0,22.08-1.11,22.08-23.59 c-0.01-22.59-14.72-21.78-22.08-21.78V621.41z M839.57,623.17v-76.01h6.49v76.01H839.57z"></path> </g> </g> <g> <linearGradient id="SVGID_00000115493538254526096260000007918563671748973238_" gradientUnits="userSpaceOnUse" x1="189.7756" y1="662.7021" x2="874.7503" y2="648.7231"> <stop offset="0" style="stop-color:#ECB32D"></stop> <stop offset="0.1137" style="stop-color:#F4D756"></stop> <stop offset="0.2097" style="stop-color:#FBF279"></stop> <stop offset="0.4462" style="stop-color:#914811"></stop> <stop offset="0.6667" style="stop-color:#F19530"></stop> <stop offset="1" style="stop-color:#ECB32D"></stop> </linearGradient> <path style="fill:url(#SVGID_00000115493538254526096260000007918563671748973238_);" d="M430.8,644.48v22.56h7.39v-22.56h4.26 v22.56h7.42v-22.56h4.29v26.22h-27.68v-26.22H430.8z"></path> <linearGradient id="SVGID_00000155850297936269342440000012320893046248916402_" gradientUnits="userSpaceOnUse" x1="189.788" y1="663.3079" x2="874.7626" y2="649.3288"> <stop offset="0" style="stop-color:#ECB32D"></stop> <stop offset="0.1137" style="stop-color:#F4D756"></stop> <stop offset="0.2097" style="stop-color:#FBF279"></stop> <stop offset="0.4462" style="stop-color:#914811"></stop> <stop offset="0.6667" style="stop-color:#F19530"></stop> <stop offset="1" style="stop-color:#ECB32D"></stop> </linearGradient> <path style="fill:url(#SVGID_00000155850297936269342440000012320893046248916402_);" d="M467.07,659.53h-2.42v11.17h-4.29 v-26.22h4.29v11.1h2.13l7.15-11.1h5.11l-8.75,12.48l9.38,13.74h-5.38L467.07,659.53z"></path> <linearGradient id="SVGID_00000083074955371611083880000010153840194341876104_" gradientUnits="userSpaceOnUse" x1="189.7967" y1="663.7377" x2="874.7714" y2="649.7585"> <stop offset="0" style="stop-color:#ECB32D"></stop> <stop offset="0.1137" style="stop-color:#F4D756"></stop> <stop offset="0.2097" style="stop-color:#FBF279"></stop> <stop offset="0.4462" style="stop-color:#914811"></stop> <stop offset="0.6667" style="stop-color:#F19530"></stop> <stop offset="1" style="stop-color:#ECB32D"></stop> </linearGradient> <path style="fill:url(#SVGID_00000083074955371611083880000010153840194341876104_);" d="M481.04,656.38 c0-3.82,0.93-6.83,2.78-9.05c1.85-2.22,4.29-3.33,7.33-3.33s5.48,1.08,7.33,3.25c1.85,2.17,2.8,5.11,2.85,8.85v2.77 c0,3.8-0.92,6.8-2.76,9.01c-1.84,2.21-4.3,3.32-7.37,3.32c-3.04,0-5.48-1.07-7.31-3.22c-1.83-2.15-2.78-5.06-2.85-8.73V656.38z M485.33,658.85c0,2.7,0.53,4.82,1.59,6.36c1.06,1.54,2.48,2.31,4.28,2.31c3.78,0,5.73-2.73,5.84-8.19v-2.96 c0-2.68-0.53-4.8-1.6-6.36c-1.07-1.56-2.5-2.34-4.29-2.34c-1.76,0-3.17,0.78-4.23,2.34c-1.06,1.56-1.59,3.67-1.59,6.34V658.85z"></path> <linearGradient id="SVGID_00000066516891595695353340000010321879255706274182_" gradientUnits="userSpaceOnUse" x1="189.8074" y1="664.2604" x2="874.7821" y2="650.2814"> <stop offset="0" style="stop-color:#ECB32D"></stop> <stop offset="0.1137" style="stop-color:#F4D756"></stop> <stop offset="0.2097" style="stop-color:#FBF279"></stop> <stop offset="0.4462" style="stop-color:#914811"></stop> <stop offset="0.6667" style="stop-color:#F19530"></stop> <stop offset="1" style="stop-color:#ECB32D"></stop> </linearGradient> <path style="fill:url(#SVGID_00000066516891595695353340000010321879255706274182_);" d="M524.36,644.48v26.22h-4.29v-22.52 h-6.91l-0.41,8.9c-0.23,4.93-0.89,8.42-1.99,10.48c-1.1,2.06-2.86,3.11-5.28,3.14h-1.43v-3.95l1.09-0.1 c1.19-0.16,2.04-0.96,2.53-2.41c0.49-1.44,0.82-4.29,0.98-8.54l0.41-11.22H524.36z"></path> <linearGradient id="SVGID_00000047764076712661900570000010289528691279214503_" gradientUnits="userSpaceOnUse" x1="189.8162" y1="664.693" x2="874.7909" y2="650.7139"> <stop offset="0" style="stop-color:#ECB32D"></stop> <stop offset="0.1137" style="stop-color:#F4D756"></stop> <stop offset="0.2097" style="stop-color:#FBF279"></stop> <stop offset="0.4462" style="stop-color:#914811"></stop> <stop offset="0.6667" style="stop-color:#F19530"></stop> <stop offset="1" style="stop-color:#ECB32D"></stop> </linearGradient> <path style="fill:url(#SVGID_00000047764076712661900570000010289528691279214503_);" d="M543.53,670.7 c-0.26-0.57-0.45-1.52-0.56-2.86c-1.52,2.23-3.46,3.35-5.82,3.35c-2.37,0-4.23-0.66-5.56-2c-1.33-1.33-2-3.21-2-5.63 c0-2.67,0.9-4.78,2.72-6.35c1.81-1.57,4.29-2.37,7.44-2.4h3.15v-2.79c0-1.57-0.35-2.68-1.04-3.35c-0.69-0.66-1.75-1-3.18-1 c-1.29,0-2.34,0.39-3.15,1.15c-0.81,0.77-1.21,1.74-1.21,2.92h-4.29c0-1.34,0.4-2.62,1.19-3.84c0.79-1.22,1.86-2.18,3.2-2.88 c1.34-0.69,2.84-1.04,4.48-1.04c2.68,0,4.72,0.67,6.12,2c1.4,1.34,2.11,3.28,2.14,5.83v13.23c0.01,2.02,0.29,3.77,0.82,5.26v0.39 H543.53z M537.81,667.28c1.05,0,2.05-0.29,3.01-0.87c0.95-0.58,1.65-1.31,2.08-2.18v-6.25h-2.42c-2.03,0.03-3.64,0.49-4.82,1.37 c-1.18,0.88-1.77,2.11-1.77,3.7c0,1.49,0.3,2.56,0.9,3.24C535.38,666.95,536.39,667.28,537.81,667.28z"></path> <linearGradient id="SVGID_00000098937168238030800360000017554193899364495528_" gradientUnits="userSpaceOnUse" x1="190.6191" y1="704.0319" x2="875.5938" y2="690.0529"> <stop offset="0" style="stop-color:#ECB32D"></stop> <stop offset="0.1137" style="stop-color:#F4D756"></stop> <stop offset="0.2097" style="stop-color:#FBF279"></stop> <stop offset="0.4462" style="stop-color:#914811"></stop> <stop offset="0.6667" style="stop-color:#F19530"></stop> <stop offset="1" style="stop-color:#ECB32D"></stop> </linearGradient> <path style="fill:url(#SVGID_00000098937168238030800360000017554193899364495528_);" d="M444.52,712.15h-4.27v-11.2h-9.45v11.2 h-4.31v-26.22h4.31v11.37h9.45v-11.37h4.27V712.15z"></path> <linearGradient id="SVGID_00000152264435827586863660000015423407086586677892_" gradientUnits="userSpaceOnUse" x1="190.6285" y1="704.4924" x2="875.6031" y2="690.5134"> <stop offset="0" style="stop-color:#ECB32D"></stop> <stop offset="0.1137" style="stop-color:#F4D756"></stop> <stop offset="0.2097" style="stop-color:#FBF279"></stop> <stop offset="0.4462" style="stop-color:#914811"></stop> <stop offset="0.6667" style="stop-color:#F19530"></stop> <stop offset="1" style="stop-color:#ECB32D"></stop> </linearGradient> <path style="fill:url(#SVGID_00000152264435827586863660000015423407086586677892_);" d="M463.69,712.15 c-0.26-0.57-0.45-1.52-0.56-2.86c-1.52,2.23-3.46,3.35-5.82,3.35c-2.37,0-4.23-0.66-5.56-2c-1.33-1.33-2-3.21-2-5.63 c0-2.67,0.9-4.78,2.72-6.35c1.81-1.57,4.29-2.37,7.44-2.4h3.15v-2.79c0-1.57-0.35-2.68-1.04-3.35c-0.69-0.66-1.75-1-3.18-1 c-1.29,0-2.34,0.39-3.15,1.15c-0.81,0.77-1.21,1.74-1.21,2.92h-4.29c0-1.34,0.4-2.62,1.19-3.84c0.79-1.22,1.86-2.18,3.2-2.88 c1.34-0.69,2.84-1.04,4.48-1.04c2.68,0,4.72,0.67,6.12,2c1.4,1.34,2.11,3.28,2.14,5.83v13.23c0.01,2.02,0.29,3.77,0.82,5.26v0.39 H463.69z M457.97,708.73c1.05,0,2.05-0.29,3.01-0.87c0.95-0.58,1.65-1.31,2.08-2.18v-6.25h-2.42c-2.03,0.03-3.64,0.49-4.82,1.37 c-1.18,0.88-1.77,2.11-1.77,3.7c0,1.49,0.3,2.56,0.9,3.24C455.54,708.4,456.55,708.73,457.97,708.73z"></path> <linearGradient id="SVGID_00000089566193258588973900000007193969025049913487_" gradientUnits="userSpaceOnUse" x1="190.6385" y1="704.9818" x2="875.6131" y2="691.0027"> <stop offset="0" style="stop-color:#ECB32D"></stop> <stop offset="0.1137" style="stop-color:#F4D756"></stop> <stop offset="0.2097" style="stop-color:#FBF279"></stop> <stop offset="0.4462" style="stop-color:#914811"></stop> <stop offset="0.6667" style="stop-color:#F19530"></stop> <stop offset="1" style="stop-color:#ECB32D"></stop> </linearGradient> <path style="fill:url(#SVGID_00000089566193258588973900000007193969025049913487_);" d="M482.19,708.97 c1.42,0,2.56-0.44,3.42-1.32c0.86-0.88,1.32-2.14,1.41-3.77h4.05c-0.1,2.52-0.99,4.61-2.68,6.27s-3.75,2.48-6.19,2.48 c-3.25,0-5.73-1.02-7.43-3.07c-1.71-2.04-2.56-5.09-2.56-9.12v-2.89c0-3.96,0.85-6.97,2.54-9.03c1.7-2.06,4.17-3.09,7.42-3.09 c2.68,0,4.81,0.85,6.39,2.55s2.41,4.02,2.51,6.96h-4.05c-0.1-1.94-0.56-3.39-1.39-4.36c-0.83-0.97-1.99-1.46-3.45-1.46 c-1.91,0-3.32,0.63-4.24,1.88c-0.92,1.25-1.4,3.31-1.43,6.17v3.35c0,3.09,0.46,5.27,1.37,6.55 C478.77,708.33,480.22,708.97,482.19,708.97z"></path> <linearGradient id="SVGID_00000114044735174906990810000011202778696475964343_" gradientUnits="userSpaceOnUse" x1="190.6457" y1="705.3351" x2="875.6204" y2="691.356"> <stop offset="0" style="stop-color:#ECB32D"></stop> <stop offset="0.1137" style="stop-color:#F4D756"></stop> <stop offset="0.2097" style="stop-color:#FBF279"></stop> <stop offset="0.4462" style="stop-color:#914811"></stop> <stop offset="0.6667" style="stop-color:#F19530"></stop> <stop offset="1" style="stop-color:#ECB32D"></stop> </linearGradient> <path style="fill:url(#SVGID_00000114044735174906990810000011202778696475964343_);" d="M512.19,689.56h-7.15v22.59h-4.27 v-22.59h-7.05v-3.63h18.47V689.56z"></path> <linearGradient id="SVGID_00000116944848537706528720000010184950826805518483_" gradientUnits="userSpaceOnUse" x1="190.6558" y1="705.8307" x2="875.6304" y2="691.8516"> <stop offset="0" style="stop-color:#ECB32D"></stop> <stop offset="0.1137" style="stop-color:#F4D756"></stop> <stop offset="0.2097" style="stop-color:#FBF279"></stop> <stop offset="0.4462" style="stop-color:#914811"></stop> <stop offset="0.6667" style="stop-color:#F19530"></stop> <stop offset="1" style="stop-color:#ECB32D"></stop> </linearGradient> <path style="fill:url(#SVGID_00000116944848537706528720000010184950826805518483_);" d="M529.29,712.15 c-0.26-0.57-0.45-1.52-0.56-2.86c-1.52,2.23-3.46,3.35-5.82,3.35c-2.37,0-4.23-0.66-5.56-2c-1.33-1.33-2-3.21-2-5.63 c0-2.67,0.9-4.78,2.72-6.35c1.81-1.57,4.29-2.37,7.44-2.4h3.15v-2.79c0-1.57-0.35-2.68-1.04-3.35c-0.69-0.66-1.75-1-3.18-1 c-1.29,0-2.34,0.39-3.15,1.15c-0.81,0.77-1.21,1.74-1.21,2.92h-4.29c0-1.34,0.4-2.62,1.19-3.84c0.79-1.22,1.86-2.18,3.2-2.88 c1.34-0.69,2.84-1.04,4.48-1.04c2.68,0,4.72,0.67,6.12,2c1.4,1.34,2.11,3.28,2.14,5.83v13.23c0.01,2.02,0.29,3.77,0.82,5.26v0.39 H529.29z M523.57,708.73c1.05,0,2.05-0.29,3.01-0.87c0.95-0.58,1.65-1.31,2.08-2.18v-6.25h-2.42c-2.03,0.03-3.64,0.49-4.82,1.37 c-1.18,0.88-1.77,2.11-1.77,3.7c0,1.49,0.3,2.56,0.9,3.24C521.14,708.4,522.15,708.73,523.57,708.73z"></path> <linearGradient id="SVGID_00000087390151549170389900000007505735507195589519_" gradientUnits="userSpaceOnUse" x1="190.6643" y1="706.2484" x2="875.639" y2="692.2693"> <stop offset="0" style="stop-color:#ECB32D"></stop> <stop offset="0.1137" style="stop-color:#F4D756"></stop> <stop offset="0.2097" style="stop-color:#FBF279"></stop> <stop offset="0.4462" style="stop-color:#914811"></stop> <stop offset="0.6667" style="stop-color:#F19530"></stop> <stop offset="1" style="stop-color:#ECB32D"></stop> </linearGradient> <path style="fill:url(#SVGID_00000087390151549170389900000007505735507195589519_);" d="M539,712.15v-26.22h8.8 c3.01,0,5.3,0.61,6.88,1.84c1.58,1.23,2.38,3.01,2.38,5.36c0,1.21-0.32,2.3-0.95,3.27c-0.63,0.97-1.55,1.71-2.76,2.23 c1.34,0.36,2.42,1.07,3.24,2.16c0.82,1.08,1.22,2.39,1.22,3.92c0,2.43-0.76,4.27-2.26,5.54c-1.51,1.27-3.65,1.9-6.41,1.9H539z M543.26,697.05h4.49c3.35,0,5.02-1.23,5.02-3.68c0-2.47-1.58-3.74-4.73-3.8h-4.78V697.05z M543.26,700.63v7.9h5.91 c2.89,0,4.34-1.32,4.34-3.98c0-2.62-1.46-3.92-4.39-3.92H543.26z"></path> <linearGradient id="SVGID_00000049938985839601842210000009934662709611180189_" gradientUnits="userSpaceOnUse" x1="190.6759" y1="706.8151" x2="875.6505" y2="692.836"> <stop offset="0" style="stop-color:#ECB32D"></stop> <stop offset="0.1137" style="stop-color:#F4D756"></stop> <stop offset="0.2097" style="stop-color:#FBF279"></stop> <stop offset="0.4462" style="stop-color:#914811"></stop> <stop offset="0.6667" style="stop-color:#F19530"></stop> <stop offset="1" style="stop-color:#ECB32D"></stop> </linearGradient> <path style="fill:url(#SVGID_00000049938985839601842210000009934662709611180189_);" d="M580.95,712.15h-4.27v-11.2h-9.45v11.2 h-4.31v-26.22h4.31v11.37h9.45v-11.37h4.27V712.15z"></path> <linearGradient id="SVGID_00000112615150589674288540000010996302414140689821_" gradientUnits="userSpaceOnUse" x1="190.6859" y1="707.3087" x2="875.6606" y2="693.3295"> <stop offset="0" style="stop-color:#ECB32D"></stop> <stop offset="0.1137" style="stop-color:#F4D756"></stop> <stop offset="0.2097" style="stop-color:#FBF279"></stop> <stop offset="0.4462" style="stop-color:#914811"></stop> <stop offset="0.6667" style="stop-color:#F19530"></stop> <stop offset="1" style="stop-color:#ECB32D"></stop> </linearGradient> <path style="fill:url(#SVGID_00000112615150589674288540000010996302414140689821_);" d="M600.89,685.92h4.27v26.22h-4.27v-19.12 l-9.5,19.12h-4.29v-26.22h4.29v19.15L600.89,685.92z"></path> <linearGradient id="SVGID_00000126313377637567006190000001816009168371550130_" gradientUnits="userSpaceOnUse" x1="190.6951" y1="707.759" x2="875.6698" y2="693.7799"> <stop offset="0" style="stop-color:#ECB32D"></stop> <stop offset="0.1137" style="stop-color:#F4D756"></stop> <stop offset="0.2097" style="stop-color:#FBF279"></stop> <stop offset="0.4462" style="stop-color:#914811"></stop> <stop offset="0.6667" style="stop-color:#F19530"></stop> <stop offset="1" style="stop-color:#ECB32D"></stop> </linearGradient> <path style="fill:url(#SVGID_00000126313377637567006190000001816009168371550130_);" d="M627.66,712.15h-4.32v-9.4 c-1.56,0.45-3.18,0.68-4.82,0.68c-2.68,0-4.77-0.83-6.26-2.49c-1.48-1.65-2.25-4.02-2.3-7.09v-7.95h4.29v8.07 c0.1,3.84,1.52,5.77,4.27,5.77c1.61,0,3.22-0.24,4.82-0.73v-13.09h4.32V712.15z"></path> <linearGradient id="SVGID_00000078737579354932072750000013273745508580939659_" gradientUnits="userSpaceOnUse" x1="190.7053" y1="708.2591" x2="875.68" y2="694.28"> <stop offset="0" style="stop-color:#ECB32D"></stop> <stop offset="0.1137" style="stop-color:#F4D756"></stop> <stop offset="0.2097" style="stop-color:#FBF279"></stop> <stop offset="0.4462" style="stop-color:#914811"></stop> <stop offset="0.6667" style="stop-color:#F19530"></stop> <stop offset="1" style="stop-color:#ECB32D"></stop> </linearGradient> <path style="fill:url(#SVGID_00000078737579354932072750000013273745508580939659_);" d="M643.03,712.63 c-3.26,0-5.77-0.97-7.51-2.92c-1.74-1.95-2.64-4.8-2.67-8.57v-3.18c0-3.91,0.85-6.98,2.56-9.2c1.71-2.22,4.08-3.33,7.14-3.33 c3.07,0,5.37,0.98,6.88,2.94c1.52,1.95,2.29,5,2.32,9.14v2.81h-14.64v0.61c0,2.81,0.53,4.86,1.59,6.13 c1.06,1.28,2.58,1.91,4.57,1.91c1.26,0,2.37-0.24,3.33-0.71c0.96-0.48,1.87-1.23,2.7-2.27l2.23,2.72 C649.68,711.32,646.84,712.63,643.03,712.63z M642.55,689.12c-1.78,0-3.09,0.61-3.95,1.83c-0.86,1.22-1.34,3.12-1.46,5.69h10.33 v-0.58c-0.11-2.49-0.56-4.27-1.35-5.33C645.34,689.65,644.15,689.12,642.55,689.12z"></path> <linearGradient id="SVGID_00000171704415295659782890000010625826305060309171_" gradientUnits="userSpaceOnUse" x1="190.7148" y1="708.7217" x2="875.6895" y2="694.7427"> <stop offset="0" style="stop-color:#ECB32D"></stop> <stop offset="0.1137" style="stop-color:#F4D756"></stop> <stop offset="0.2097" style="stop-color:#FBF279"></stop> <stop offset="0.4462" style="stop-color:#914811"></stop> <stop offset="0.6667" style="stop-color:#F19530"></stop> <stop offset="1" style="stop-color:#ECB32D"></stop> </linearGradient> <path style="fill:url(#SVGID_00000171704415295659782890000010625826305060309171_);" d="M665.52,708.97 c1.42,0,2.56-0.44,3.42-1.32c0.86-0.88,1.32-2.14,1.41-3.77h4.05c-0.1,2.52-0.99,4.61-2.68,6.27s-3.75,2.48-6.19,2.48 c-3.25,0-5.73-1.02-7.43-3.07c-1.71-2.04-2.56-5.09-2.56-9.12v-2.89c0-3.96,0.85-6.97,2.54-9.03c1.7-2.06,4.17-3.09,7.42-3.09 c2.68,0,4.81,0.85,6.39,2.55s2.41,4.02,2.51,6.96h-4.05c-0.1-1.94-0.56-3.39-1.39-4.36c-0.83-0.97-1.99-1.46-3.45-1.46 c-1.91,0-3.32,0.63-4.24,1.88c-0.92,1.25-1.4,3.31-1.43,6.17v3.35c0,3.09,0.46,5.27,1.37,6.55 C662.11,708.33,663.55,708.97,665.52,708.97z"></path> <linearGradient id="SVGID_00000070088177725432796620000011058976470644196761_" gradientUnits="userSpaceOnUse" x1="190.722" y1="709.075" x2="875.6967" y2="695.0959"> <stop offset="0" style="stop-color:#ECB32D"></stop> <stop offset="0.1137" style="stop-color:#F4D756"></stop> <stop offset="0.2097" style="stop-color:#FBF279"></stop> <stop offset="0.4462" style="stop-color:#914811"></stop> <stop offset="0.6667" style="stop-color:#F19530"></stop> <stop offset="1" style="stop-color:#ECB32D"></stop> </linearGradient> <path style="fill:url(#SVGID_00000070088177725432796620000011058976470644196761_);" d="M695.52,689.56h-7.15v22.59h-4.27 v-22.59h-7.05v-3.63h18.47V689.56z"></path> <linearGradient id="SVGID_00000011004542249484239730000003352259583447685776_" gradientUnits="userSpaceOnUse" x1="190.7312" y1="709.525" x2="875.7059" y2="695.5459"> <stop offset="0" style="stop-color:#ECB32D"></stop> <stop offset="0.1137" style="stop-color:#F4D756"></stop> <stop offset="0.2097" style="stop-color:#FBF279"></stop> <stop offset="0.4462" style="stop-color:#914811"></stop> <stop offset="0.6667" style="stop-color:#F19530"></stop> <stop offset="1" style="stop-color:#ECB32D"></stop> </linearGradient> <path style="fill:url(#SVGID_00000011004542249484239730000003352259583447685776_);" d="M699.62,712.15v-26.22h8.8 c3.01,0,5.3,0.61,6.88,1.84c1.58,1.23,2.38,3.01,2.38,5.36c0,1.21-0.32,2.3-0.95,3.27c-0.63,0.97-1.55,1.71-2.76,2.23 c1.34,0.36,2.42,1.07,3.24,2.16c0.82,1.08,1.22,2.39,1.22,3.92c0,2.43-0.76,4.27-2.26,5.54c-1.51,1.27-3.65,1.9-6.41,1.9H699.62z M703.89,697.05h4.49c3.35,0,5.02-1.23,5.02-3.68c0-2.47-1.58-3.74-4.73-3.8h-4.78V697.05z M703.89,700.63v7.9h5.91 c2.89,0,4.34-1.32,4.34-3.98c0-2.62-1.46-3.92-4.39-3.92H703.89z"></path> <linearGradient id="SVGID_00000158722160288580979410000018425902733558269875_" gradientUnits="userSpaceOnUse" x1="190.7421" y1="710.0624" x2="875.7168" y2="696.0834"> <stop offset="0" style="stop-color:#ECB32D"></stop> <stop offset="0.1137" style="stop-color:#F4D756"></stop> <stop offset="0.2097" style="stop-color:#FBF279"></stop> <stop offset="0.4462" style="stop-color:#914811"></stop> <stop offset="0.6667" style="stop-color:#F19530"></stop> <stop offset="1" style="stop-color:#ECB32D"></stop> </linearGradient> <path style="fill:url(#SVGID_00000158722160288580979410000018425902733558269875_);" d="M736.73,712.15 c-0.26-0.57-0.45-1.52-0.56-2.86c-1.52,2.23-3.46,3.35-5.82,3.35c-2.37,0-4.23-0.66-5.56-2c-1.33-1.33-2-3.21-2-5.63 c0-2.67,0.9-4.78,2.72-6.35c1.81-1.57,4.29-2.37,7.44-2.4h3.15v-2.79c0-1.57-0.35-2.68-1.04-3.35c-0.69-0.66-1.75-1-3.18-1 c-1.29,0-2.34,0.39-3.15,1.15c-0.81,0.77-1.21,1.74-1.21,2.92h-4.29c0-1.34,0.4-2.62,1.19-3.84c0.79-1.22,1.86-2.18,3.2-2.88 c1.34-0.69,2.84-1.04,4.48-1.04c2.68,0,4.72,0.67,6.12,2c1.4,1.34,2.11,3.28,2.14,5.83v13.23c0.01,2.02,0.29,3.77,0.82,5.26v0.39 H736.73z M731.01,708.73c1.05,0,2.05-0.29,3.01-0.87c0.95-0.58,1.65-1.31,2.08-2.18v-6.25h-2.42c-2.03,0.03-3.64,0.49-4.82,1.37 c-1.18,0.88-1.77,2.11-1.77,3.7c0,1.49,0.3,2.56,0.9,3.24C728.58,708.4,729.59,708.73,731.01,708.73z"></path> </g> </g> </g> </svg> 